<?xml version="1.0" encoding="utf-8"?>
<!-- Generator: Adobe Illustrator 22.1.0, SVG Export Plug-In . SVG Version: 6.00 Build 0)  -->
<svg version="1.1" id="Capa_1" xmlns="http://www.w3.org/2000/svg" xmlns:xlink="http://www.w3.org/1999/xlink" x="0px" y="0px"
	 viewBox="0 0 284.5 179.9" style="enable-background:new 0 0 284.5 179.9;" xml:space="preserve">
<g>
	<path d="M95.7,95.5c-1.1,1.8-2.6,3.6-4.5,5.3s-4,3.3-6.4,4.7c-2.4,1.4-5,2.5-7.9,3.4c-2.8,0.9-5.8,1.3-8.8,1.3
		c-2.4,0-4.7-0.2-7.1-0.6c-2.4-0.4-4.6-1.1-6.8-1.9c-2.2-0.9-4.2-2-6.1-3.3c-1.9-1.3-3.5-2.9-4.9-4.7c-1.4-1.8-2.5-3.9-3.3-6.2
		c-0.8-2.3-1.2-4.9-1.2-7.7c0-2.7,0.4-5.4,1.2-7.8c0.8-2.5,1.9-4.8,3.4-6.9c1.5-2.1,3.2-4,5.2-5.7c2-1.7,4.2-3.1,6.6-4.3
		c2.4-1.2,4.9-2.1,7.5-2.7c2.6-0.6,5.3-1,8.1-1c3,0,5.9,0.4,8.5,1.1c2.7,0.7,5,1.7,7,3c2,1.3,3.6,2.9,4.7,4.7
		c1.2,1.8,1.7,3.8,1.7,6.1c0,2.1-0.5,4-1.4,5.9c-1,1.9-2.3,3.5-4,4.9c-1.7,1.4-3.6,2.5-5.9,3.3c-2.2,0.8-4.6,1.2-7.2,1.2
		c-2,0-3.9-0.3-5.4-0.8c-1.6-0.5-2.9-1.2-3.9-2.1s-1.9-1.9-2.4-3.1c-0.5-1.2-0.8-2.5-0.8-3.9c0-1.2,0.2-2.2,0.5-3.2
		c0.4-1,0.8-1.8,1.2-2.4s0.8-1.2,1.2-1.6s0.6-0.6,0.7-0.7c0.1-0.1,0.3-0.2,0.4-0.2c0.2,0,0.3-0.1,0.4-0.1c0.4,0,0.7,0.1,1,0.4
		c0.3,0.2,0.4,0.5,0.4,0.9c0,0.4-0.2,0.8-0.5,1.1c0,0-0.2,0.2-0.5,0.5c-0.3,0.3-0.6,0.7-0.9,1.2c-0.3,0.5-0.6,1.1-0.9,1.8
		c-0.3,0.7-0.4,1.5-0.4,2.3c0,1.3,0.3,2.5,0.9,3.4c0.6,0.9,1.4,1.7,2.3,2.2s2,1,3.2,1.2s2.3,0.4,3.5,0.4c2.2,0,4.2-0.4,6.1-1.1
		s3.6-1.6,5-2.8c1.4-1.2,2.6-2.5,3.4-4.1s1.2-3.1,1.2-4.8c0-1.8-0.5-3.5-1.6-5c-1-1.5-2.4-2.8-4.2-3.9c-1.8-1.1-3.8-1.9-6.2-2.5
		s-4.9-0.9-7.6-0.9c-2,0-4.1,0.2-6.4,0.7C62,61.3,59.8,62,57.7,63c-2.2,1-4.2,2.2-6.2,3.6s-3.7,3.1-5.2,5c-1.5,1.9-2.7,4.1-3.5,6.4
		c-0.9,2.4-1.3,5-1.3,7.8c0,2.6,0.4,4.9,1.1,6.9c0.7,2.1,1.7,3.9,3,5.5c1.3,1.6,2.8,3,4.5,4.2s3.5,2.1,5.5,2.9s4,1.3,6.1,1.7
		c2.1,0.4,4.3,0.5,6.4,0.5c2.8,0,5.5-0.4,8.1-1.2c2.6-0.8,5-1.8,7.2-3.1c2.2-1.3,4.2-2.7,5.9-4.3c1.7-1.6,3.1-3.2,4.1-4.8
		c0.1-0.2,0.3-0.4,0.5-0.5c0.2-0.1,0.4-0.2,0.7-0.2c0.4,0,0.7,0.1,1,0.4s0.4,0.6,0.4,0.9c0,0.1,0,0.2,0,0.4
		C95.8,95.3,95.7,95.4,95.7,95.5z"/>
	<path d="M103,94.1c-0.1,0.6-0.2,1.2-0.4,1.8c-0.1,0.6-0.3,1-0.4,1.4s-0.2,0.7-0.3,1c-0.1,0.3-0.2,0.4-0.2,0.4
		c-0.2,0.5-0.6,0.8-1.2,0.8c-0.3,0-0.6-0.1-0.9-0.4c-0.3-0.2-0.4-0.6-0.4-0.9c0-0.1,0-0.2,0.1-0.3c0-0.1,0.1-0.2,0.2-0.4
		c0.1-0.2,0.2-0.6,0.4-1.1c0.1-0.5,0.3-1.3,0.5-2.3c-0.4,0-0.8,0-1.2,0c-0.4,0-0.8-0.1-1.2-0.2s-0.7-0.4-0.9-0.7
		c-0.2-0.3-0.4-0.7-0.4-1.3c0-0.4,0.1-0.9,0.3-1.6c0.2-0.7,0.5-1.4,0.9-2s0.8-1.2,1.3-1.7c0.5-0.5,0.9-0.7,1.4-0.7
		c0.5,0,1,0.2,1.3,0.6c0.3,0.4,0.6,0.9,0.8,1.5s0.3,1.2,0.4,1.8s0.1,1.2,0.1,1.7c0.4,0,0.8,0,1.2,0c0.4,0,0.8,0,1.1,0
		c1.3,0,2.4,0.3,3.1,0.9c0.7,0.6,1.1,1.6,1.1,2.9c0,0.5,0,1.1-0.1,1.7c-0.1,0.6-0.2,1.2-0.2,1.8c-0.1,0.6-0.2,1.2-0.2,1.8
		c-0.1,0.6-0.1,1.2-0.1,1.8c0,0.8,0.1,1.5,0.4,2.1c0.2,0.6,0.5,1,0.9,1.3s0.7,0.6,1.1,0.7c0.4,0.1,0.8,0.2,1.1,0.2c1,0,2-0.3,2.9-1
		s1.7-1.5,2.5-2.4c0.8-0.9,1.4-1.9,2-2.9s1.1-1.9,1.5-2.7c0.1-0.2,0.3-0.4,0.5-0.5s0.4-0.2,0.7-0.2c0.4,0,0.8,0.1,1,0.4
		c0.2,0.3,0.4,0.6,0.4,0.9c0,0.2,0,0.4-0.1,0.6c-0.5,1-1.2,2-1.9,3.3c-0.7,1.2-1.5,2.3-2.4,3.4c-0.9,1.1-1.9,1.9-3.1,2.7
		c-1.1,0.7-2.4,1.1-3.8,1.1c-0.8,0-1.6-0.2-2.4-0.5c-0.8-0.3-1.4-0.8-2-1.4c-0.6-0.6-1-1.3-1.3-2.2c-0.3-0.9-0.5-1.9-0.5-3
		c0-1.2,0.1-2.3,0.4-3.5c0.2-1.2,0.4-2.3,0.4-3.3c0-0.4-0.1-0.8-0.3-1c-0.2-0.2-0.6-0.3-1.3-0.3c-0.3,0-0.7,0-1.1,0
		C103.8,94.1,103.4,94.1,103,94.1z M100.6,91.5c0-0.2,0-0.4,0-0.7c0-0.3,0-0.5-0.1-0.8c0-0.3-0.1-0.5-0.1-0.7s-0.1-0.3-0.2-0.3
		c-0.1,0-0.2,0.1-0.3,0.3c-0.1,0.2-0.2,0.4-0.3,0.6c-0.1,0.2-0.2,0.5-0.3,0.8c-0.1,0.3-0.2,0.5-0.2,0.7H100.6z"/>
	<path d="M148.4,98.7c-0.1,0.2-0.3,0.6-0.6,1.2c-0.3,0.6-0.7,1.3-1.1,2.1c-0.5,0.8-1,1.6-1.6,2.4c-0.6,0.8-1.3,1.6-2,2.3
		s-1.6,1.3-2.4,1.7s-1.8,0.7-2.7,0.7c-1.4,0-2.5-0.4-3.4-1.3c-0.9-0.9-1.6-2-2-3.3c-0.8,1.3-1.8,2.4-2.9,3.2s-2.2,1.2-3.3,1.2
		c-0.9,0-1.7-0.2-2.4-0.5c-0.7-0.3-1.3-0.8-1.8-1.3s-0.9-1.3-1.1-2c-0.3-0.8-0.4-1.6-0.4-2.5c0-1.8,0.3-3.4,0.9-4.8
		c0.6-1.4,1.4-2.6,2.4-3.5c1-0.9,2-1.6,3.2-2.1c1.2-0.5,2.3-0.7,3.4-0.7c0.7,0,1.4,0.1,2,0.3c0.6,0.2,1.1,0.4,1.6,0.7
		c0.4,0.2,0.8,0.5,1,0.7c0.2,0.2,0.4,0.3,0.4,0.3c0.3,0.3,0.4,0.6,0.4,1c0,0.4-0.1,0.7-0.4,0.9c-0.3,0.3-0.6,0.4-0.9,0.4
		c-0.4,0-0.7-0.1-1-0.4c0,0-0.2-0.1-0.3-0.3c-0.2-0.1-0.4-0.3-0.7-0.4c-0.3-0.1-0.6-0.3-1-0.4c-0.4-0.1-0.8-0.2-1.3-0.2
		c-0.7,0-1.5,0.2-2.3,0.5s-1.6,0.8-2.3,1.5c-0.7,0.7-1.3,1.6-1.7,2.6c-0.5,1-0.7,2.3-0.7,3.7c0,0.4,0,0.9,0.1,1.4
		c0.1,0.5,0.3,0.9,0.5,1.3c0.2,0.4,0.6,0.7,1,0.9c0.4,0.2,0.9,0.4,1.5,0.4c0.4,0,0.9-0.1,1.5-0.4c0.6-0.3,1.1-0.7,1.6-1.3
		c0.5-0.6,1-1.3,1.4-2.2c0.4-0.9,0.7-1.9,0.9-3.2c0-0.3,0.2-0.6,0.5-0.8c0.3-0.2,0.6-0.3,0.9-0.3c0.3,0,0.6,0.1,0.9,0.4
		c0.2,0.3,0.4,0.6,0.4,0.9c0,0.4,0.1,1.1,0.1,1.9s0.2,1.6,0.5,2.4s0.6,1.5,1.1,2.1c0.5,0.6,1.2,0.9,2,0.9c0.6,0,1.1-0.2,1.7-0.5
		c0.6-0.3,1.1-0.7,1.6-1.2c0.5-0.5,1-1.1,1.5-1.7c0.5-0.6,0.9-1.3,1.3-2c0.4-0.7,0.8-1.3,1.1-1.9c0.3-0.6,0.6-1.1,0.8-1.6
		c0.1-0.3,0.3-0.5,0.5-0.6c0.2-0.1,0.5-0.2,0.7-0.2c0.4,0,0.7,0.1,1,0.4s0.4,0.6,0.4,0.9C148.5,98.4,148.5,98.6,148.4,98.7z"/>
	<path d="M148.7,110.3c1.7-0.8,3.3-1.7,4.7-2.7c1.4-1,2.7-2.1,3.8-3.2s2.1-2.3,2.9-3.4c0.8-1.2,1.4-2.3,1.9-3.3
		c0.2-0.5,0.6-0.8,1.2-0.8c0.4,0,0.7,0.1,1,0.4s0.4,0.6,0.4,0.9c0,0.2,0,0.4-0.1,0.5c-0.5,1.2-1.2,2.3-2,3.6
		c-0.8,1.2-1.8,2.4-2.9,3.6c-1.1,1.2-2.5,2.3-4,3.4c-1.5,1.1-3.3,2.1-5.2,3c1.3,1.3,2.4,2.8,3.3,4.4s1.7,3.3,2.3,5
		c0.6,1.7,1.1,3.5,1.4,5.3c0.3,1.8,0.5,3.5,0.5,5.1c0,1.5-0.1,2.9-0.4,4.2c-0.3,1.3-0.7,2.4-1.2,3.4c-0.5,1-1.2,1.7-1.9,2.3
		c-0.8,0.6-1.6,0.8-2.6,0.8c-1.4,0-2.5-0.5-3.3-1.6c-0.8-1-1.3-2.5-1.7-4.3c-0.4-1.8-0.6-4-0.6-6.5c-0.1-2.5-0.1-5.2-0.1-8.2
		c0-1.5,0-3.2,0-5.1s0-4,0-6.2c0-2.2,0-4.5,0-7c0-2.4,0-4.9,0.1-7.3c0-2.4,0-4.8,0.1-7.2c0-2.4,0.1-4.6,0.1-6.7
		c0.1-4,0.2-7.6,0.4-10.8c0.2-3.2,0.6-5.8,1-8c0.5-2.2,1.1-3.8,1.9-5c0.8-1.1,1.8-1.7,3.1-1.7c1,0,1.8,0.3,2.5,0.8
		c0.7,0.6,1.2,1.3,1.7,2.2c0.4,0.9,0.7,2,0.9,3.3c0.2,1.2,0.3,2.5,0.3,3.9c0,2.9-0.2,5.6-0.7,8.3c-0.5,2.7-1.2,5.3-2,7.8
		c-0.8,2.5-1.8,5-3,7.4c-1.1,2.4-2.4,4.8-3.6,7.1c0,1,0,2,0,3.1s0,2.2,0,3.3s0,2.2,0,3.2C148.7,108.7,148.7,109.6,148.7,110.3z
		 M148.7,114.6c0,1.5,0,2.9,0,4.1s0,2.4,0,3.5c0,2.2,0,4.3,0,6.5c0,2.1,0.1,4.1,0.3,5.8c0.2,1.7,0.5,3.1,0.9,4.1
		c0.4,1,1,1.6,1.8,1.6c0.7,0,1.3-0.3,1.7-1c0.4-0.6,0.8-1.4,1-2.3s0.4-1.8,0.5-2.7s0.1-1.6,0.1-2.2c0-1.4-0.1-2.9-0.4-4.5
		c-0.3-1.6-0.7-3.1-1.2-4.7c-0.6-1.5-1.2-3-2-4.5C150.7,117.1,149.8,115.8,148.7,114.6z M148.8,92.5c1-1.8,1.8-3.7,2.7-5.7
		c0.8-2,1.5-4.1,2.1-6.2c0.6-2.1,1-4.3,1.4-6.6s0.5-4.5,0.5-6.7c0-1.1-0.1-2.1-0.2-3.1c-0.1-0.9-0.3-1.7-0.5-2.3
		c-0.2-0.6-0.5-1.2-0.8-1.5s-0.7-0.5-1.2-0.5c-0.5,0-0.9,0.3-1.2,0.8c-0.4,0.6-0.7,1.3-0.9,2.3c-0.3,0.9-0.5,2-0.7,3.2
		c-0.2,1.2-0.3,2.5-0.4,3.8s-0.2,2.7-0.3,4s-0.1,2.6-0.2,3.7s-0.1,2.2-0.1,3.1c0,0.9,0,1.6,0,2c0,0.9,0,1.8-0.1,2.5s0,1.4-0.1,2.1
		c0,0.7,0,1.5-0.1,2.3C148.8,90.5,148.8,91.5,148.8,92.5z"/>
	<path d="M190.5,73.3c0,0.4-0.1,0.7-0.4,0.9c-0.3,0.2-0.6,0.3-1,0.3h-17.9v0.4c0,1.4-0.1,3-0.3,4.6c-0.2,1.6-0.5,3.2-0.9,4.8
		s-0.8,3.2-1.2,4.7s-0.9,2.9-1.4,4.2c-0.5,1.3-1,2.4-1.4,3.4c-0.5,1-0.9,1.7-1.3,2.1c0.3,1.1,0.7,2.1,1.1,3s0.9,1.7,1.4,2.4
		c0.5,0.7,1.1,1.2,1.7,1.6s1.3,0.6,2,0.6c0.8,0,1.6-0.3,2.4-1c0.8-0.7,1.6-1.5,2.3-2.5c0.7-1,1.3-1.9,1.8-2.9s0.9-1.8,1.1-2.3
		c0.2-0.6,0.6-0.8,1.2-0.8c0.4,0,0.7,0.1,1,0.4c0.2,0.3,0.4,0.6,0.4,0.9c0,0.2,0,0.3-0.1,0.5c-0.1,0.2-0.2,0.5-0.5,1.1
		c-0.3,0.6-0.6,1.3-1.1,2c-0.4,0.8-0.9,1.6-1.5,2.4c-0.6,0.9-1.2,1.6-1.9,2.3s-1.5,1.3-2.3,1.8c-0.8,0.5-1.7,0.7-2.6,0.7
		c-1.6,0-3.1-0.5-4.4-1.6s-2.4-2.5-3.3-4.4s-1.6-4.2-2.1-6.8c-0.5-2.6-0.7-5.5-0.7-8.6c0-0.8,0-1.7,0-2.7c0-1,0.1-2.1,0.1-3.3
		c0.1-1.2,0.2-2.4,0.3-3.6c0.1-1.2,0.3-2.4,0.6-3.6h-12.6c-0.4,0-0.7-0.1-1-0.3c-0.3-0.2-0.4-0.5-0.4-0.9s0.1-0.7,0.4-0.9
		s0.6-0.3,1-0.3h13.2c0.2-0.8,0.5-1.6,0.8-2.3c0.3-0.7,0.7-1.3,1.1-1.8s0.9-0.9,1.4-1.2c0.5-0.3,1.1-0.4,1.7-0.4
		c0.6,0,1.1,0.1,1.5,0.4c0.4,0.3,0.8,0.7,1.1,1.2c0.3,0.5,0.5,1.1,0.7,1.8c0.2,0.7,0.3,1.5,0.4,2.3h18c0.4,0,0.7,0.1,1,0.3
		S190.5,72.9,190.5,73.3z M164,95.3c0.7-1.6,1.3-3.2,1.9-5s1.1-3.6,1.5-5.4c0.4-1.8,0.7-3.6,1-5.4c0.2-1.8,0.3-3.4,0.3-4.9h-4.2
		c-0.3,1.5-0.6,3.3-0.8,5.4c-0.2,2.1-0.3,4.8-0.3,7.8c0,1.7,0,3.2,0.1,4.3C163.7,93.3,163.8,94.3,164,95.3z M167.3,68.9
		c-0.2,0-0.5,0.2-0.9,0.7c-0.4,0.5-0.8,1.3-1.2,2.5h3.4c-0.1-1-0.3-1.8-0.5-2.3C167.8,69.2,167.6,68.9,167.3,68.9z"/>
	<path d="M184.6,80.9c0,0.9-0.3,1.7-0.9,2.3s-1.4,0.9-2.3,0.9c-0.9,0-1.7-0.3-2.3-0.9c-0.6-0.6-0.9-1.4-0.9-2.3
		c0-0.4,0.1-0.9,0.2-1.3s0.4-0.7,0.7-1c0.3-0.3,0.6-0.5,1-0.7c0.4-0.2,0.8-0.2,1.3-0.2c0.4,0,0.9,0.1,1.3,0.2s0.7,0.4,1,0.7
		c0.3,0.3,0.5,0.6,0.7,1S184.6,80.5,184.6,80.9z M178.9,101.6c0-3.4,0.2-6.8,0.6-10.1c0-0.3,0.2-0.6,0.4-0.9s0.6-0.4,1-0.4
		c0.4,0,0.6,0.1,0.9,0.4s0.4,0.6,0.4,0.9c0,0.1,0,0.6-0.1,1.3c-0.1,0.7-0.1,1.5-0.2,2.5c-0.1,1-0.2,2-0.2,3.1
		c-0.1,1.1-0.1,2.1-0.1,3c0,1.2,0.1,2.2,0.4,3s0.6,1.4,1,1.8c0.4,0.4,0.8,0.7,1.2,0.8c0.4,0.1,0.9,0.2,1.3,0.2c0.7,0,1.3-0.2,2-0.7
		s1.4-1.1,2.2-2s1.5-1.9,2.2-3c0.8-1.2,1.5-2.5,2.2-4c0.1-0.2,0.3-0.4,0.5-0.5c0.2-0.1,0.4-0.2,0.7-0.2c0.4,0,0.7,0.1,0.9,0.4
		c0.2,0.3,0.4,0.6,0.4,0.9c0,0.2,0,0.4-0.1,0.6c-0.3,0.5-0.6,1.2-1.1,2c-0.4,0.8-0.9,1.6-1.4,2.4s-1.1,1.6-1.8,2.4
		c-0.6,0.8-1.3,1.5-2.1,2.2c-0.7,0.6-1.5,1.2-2.3,1.6c-0.8,0.4-1.6,0.6-2.4,0.6c-1.1,0-2-0.2-2.8-0.7c-0.8-0.4-1.5-1-2-1.8
		c-0.6-0.8-1-1.6-1.2-2.7C179,103.8,178.9,102.7,178.9,101.6z M182.6,80.9c0-0.3-0.1-0.6-0.4-0.9s-0.5-0.4-0.9-0.4s-0.6,0.1-0.8,0.4
		s-0.4,0.5-0.4,0.9c0,0.3,0.1,0.6,0.4,0.8c0.2,0.2,0.5,0.4,0.8,0.4s0.6-0.1,0.9-0.4C182.5,81.5,182.6,81.2,182.6,80.9z"/>
	<path d="M201.8,105.4c0.4-0.8,0.8-1.6,1.3-2.6s1-1.9,1.6-2.8c0.6-1,1.2-1.9,1.8-2.8c0.6-0.9,1.3-1.8,2-2.7c0.7-0.8,1.4-1.4,2.1-1.8
		c0.7-0.4,1.3-0.5,2-0.5c1.2,0,2.1,0.4,2.7,1.3c0.6,0.9,0.9,2,0.9,3.3c0,0.3,0,0.7-0.1,1.1c0,0.4-0.1,0.9-0.1,1.4s-0.1,1-0.1,1.5
		c0,0.5-0.1,1-0.1,1.4c0,0.6,0,1.1,0.1,1.6s0.2,1,0.3,1.4s0.4,0.7,0.7,0.9c0.3,0.2,0.7,0.3,1.2,0.3c0.9,0,1.8-0.3,2.6-1
		c0.8-0.7,1.6-1.5,2.3-2.5c0.7-1,1.3-1.9,1.9-2.9c0.5-1,0.9-1.8,1.2-2.4c0.1-0.3,0.3-0.5,0.5-0.6c0.2-0.1,0.5-0.2,0.7-0.2
		c0.4,0,0.7,0.1,1,0.4s0.4,0.6,0.4,0.9c0,0.2,0,0.3-0.1,0.5c-0.1,0.2-0.3,0.6-0.6,1.2c-0.3,0.6-0.7,1.3-1.1,2s-1,1.6-1.6,2.4
		c-0.6,0.9-1.3,1.6-2,2.3s-1.5,1.3-2.4,1.8c-0.9,0.5-1.8,0.7-2.7,0.7c-1.1,0-1.9-0.2-2.6-0.6s-1.2-1-1.6-1.6s-0.6-1.4-0.8-2.2
		c-0.1-0.8-0.2-1.6-0.2-2.4c0-0.4,0-0.8,0.1-1.2c0-0.4,0.1-0.9,0.1-1.4c0.1-0.5,0.1-1,0.1-1.5c0-0.5,0.1-1,0.1-1.4
		c0-0.8-0.1-1.3-0.4-1.5c-0.2-0.3-0.4-0.4-0.6-0.4c-0.4,0-0.8,0.2-1.3,0.7c-0.5,0.4-1,1-1.5,1.7c-0.5,0.7-1.1,1.5-1.6,2.4
		c-0.6,0.9-1.1,1.8-1.6,2.6c-0.5,0.9-0.9,1.7-1.3,2.5s-0.7,1.4-1,2c-0.5,1-0.9,1.7-1.4,2c-0.5,0.3-1,0.5-1.4,0.5
		c-0.7,0-1.2-0.2-1.6-0.6s-0.6-1-0.6-1.7c0-0.2,0-0.5,0.1-1c0-0.5,0.1-1.1,0.2-1.7c0.1-0.7,0.1-1.4,0.2-2.2c0.1-0.8,0.1-1.5,0.2-2.3
		c0.1-0.8,0.1-1.5,0.2-2.1c0-0.7,0.1-1.2,0.1-1.7c0-0.6,0-1.2-0.1-1.7c0-0.5-0.1-0.9-0.3-1c-0.2,0.1-0.6,0.5-1.1,1.3
		c-0.5,0.8-1.2,2.2-2.1,4.3c-0.1,0.3-0.3,0.5-0.5,0.6c-0.2,0.1-0.5,0.2-0.7,0.2c-0.4,0-0.7-0.1-1-0.4c-0.2-0.3-0.4-0.6-0.4-0.9
		c0-0.2,0-0.3,0.1-0.5c1.1-2.5,2-4.4,3-5.5c0.9-1.2,1.8-1.8,2.8-1.8c0.5,0,1,0.1,1.4,0.4s0.7,0.6,0.9,1.1c0.2,0.4,0.4,0.9,0.5,1.5
		c0.1,0.5,0.2,1.1,0.2,1.7c0,0.4,0,1.1-0.1,2c-0.1,0.9-0.1,1.9-0.2,2.9c-0.1,1-0.2,2-0.3,3S201.9,104.7,201.8,105.4z"/>
	<path d="M238.8,112c4.4-5.8,7.5-10.5,9.2-14.3c0.1-0.3,0.3-0.5,0.5-0.6s0.4-0.2,0.7-0.2c0.4,0,0.7,0.1,1,0.4
		c0.3,0.3,0.4,0.6,0.4,0.9c0,0.2,0,0.3-0.1,0.5c-1,2.3-2.5,5-4.4,7.9s-4.3,6.2-7.2,9.8c0,1.5,0,3,0,4.4c0,1.5,0,3.1,0,4.9
		c0,1.8,0,3.5-0.1,5.2c-0.1,1.7-0.2,3.4-0.4,4.9s-0.5,3-0.9,4.3s-0.8,2.5-1.4,3.5c-0.6,1-1.3,1.7-2.1,2.3c-0.8,0.6-1.8,0.8-2.9,0.8
		c-1.6,0-2.8-0.6-3.6-1.8c-0.8-1.2-1.3-2.9-1.3-5.1c0-1.2,0.1-2.4,0.3-3.8c0.2-1.4,0.5-2.8,1-4.2c0.4-1.5,0.9-2.9,1.5-4.4
		s1.3-2.9,2-4.4c0.7-1.4,1.5-2.8,2.4-4.1s1.8-2.5,2.7-3.5c0-1.6,0-3.3,0.1-4.9c0-1.6,0-3.1,0.1-4.5c-0.7,0.9-1.5,1.6-2.5,2.1
		c-1,0.5-1.9,0.8-2.9,0.8c-0.8,0-1.6-0.2-2.2-0.5c-0.7-0.3-1.2-0.8-1.7-1.3c-0.5-0.6-0.8-1.3-1.1-2c-0.3-0.8-0.4-1.6-0.4-2.5
		c0-1.8,0.3-3.4,0.9-4.8c0.6-1.4,1.4-2.6,2.4-3.5c1-0.9,2-1.6,3.2-2.1c1.2-0.5,2.3-0.7,3.4-0.7c0.7,0,1.4,0.1,2,0.3s1.1,0.4,1.6,0.6
		c0.4,0.2,0.8,0.5,1,0.7c0.2,0.2,0.4,0.3,0.4,0.4c0.3,0.3,0.4,0.6,0.4,1s-0.1,0.7-0.4,0.9c-0.3,0.3-0.6,0.4-0.9,0.4
		c-0.3,0-0.6-0.1-1-0.4c-0.1-0.1-0.2-0.2-0.4-0.3c-0.2-0.1-0.4-0.3-0.6-0.4s-0.5-0.3-0.9-0.4c-0.3-0.1-0.7-0.1-1.2-0.1
		c-0.7,0-1.5,0.2-2.3,0.5c-0.8,0.3-1.6,0.8-2.4,1.5c-0.7,0.7-1.3,1.6-1.8,2.6c-0.5,1.1-0.7,2.4-0.7,3.9c0,1.1,0.2,2,0.7,2.7
		c0.5,0.7,1.3,1,2.3,1c0.5,0,1-0.1,1.6-0.4s1.1-0.7,1.6-1.3c0.5-0.6,1-1.3,1.4-2.2c0.4-0.9,0.7-1.9,0.8-3.2c0-0.3,0.2-0.6,0.5-0.8
		c0.3-0.2,0.6-0.3,0.9-0.3c0.4,0,0.7,0.1,0.9,0.4c0.2,0.3,0.3,0.6,0.3,1c0,0,0,0.4,0,1.1c0,0.7,0,1.6-0.1,2.8c0,1.2-0.1,2.5-0.1,4
		C238.9,108.7,238.9,110.3,238.8,112z M236.2,119.7c-1.1,1.5-2.1,3.2-3,5c-0.9,1.8-1.7,3.6-2.3,5.4s-1.1,3.6-1.5,5.3
		c-0.3,1.7-0.5,3.3-0.5,4.6c0,0.9,0.1,1.6,0.2,2.1c0.2,0.5,0.3,0.9,0.6,1.2c0.2,0.3,0.5,0.5,0.7,0.6c0.3,0.1,0.5,0.1,0.8,0.1
		c0.7,0,1.4-0.3,1.9-0.9c0.5-0.6,1-1.4,1.4-2.3s0.7-2.1,0.9-3.4c0.2-1.3,0.4-2.6,0.5-3.9s0.2-2.7,0.2-4c0-1.3,0.1-2.6,0.1-3.7
		c0-1,0-2,0-3S236.2,120.8,236.2,119.7z"/>
</g>
</svg>
